<svg width="232" height="52" viewBox="0 0 232 52" fill="none" xmlns="http://www.w3.org/2000/svg">
<path d="M26.1845 51L9.9285 31.096V51H0.968498V6.328H9.9285V26.36L26.1845 6.328H37.0005L18.5685 28.472L37.5125 51H26.1845ZM137.499 15.032C140.187 15.032 142.576 15.6293 144.667 16.824C146.758 17.976 148.379 19.704 149.531 22.008C150.726 24.2693 151.323 27 151.323 30.2V51H142.363V31.416C142.363 28.6 141.659 26.4453 140.251 24.952C138.843 23.416 136.923 22.648 134.491 22.648C132.016 22.648 130.054 23.416 128.603 24.952C127.195 26.4453 126.491 28.6 126.491 31.416V51H117.531V3.64H126.491V19.96C127.643 18.424 129.179 17.2293 131.099 16.376C133.019 15.48 135.152 15.032 137.499 15.032Z" fill="#4285F4"/>
<path d="M49.23 11.32C47.6513 11.32 46.3287 10.8293 45.262 9.848C44.238 8.824 43.726 7.56533 43.726 6.072C43.726 4.57866 44.238 3.34133 45.262 2.36C46.3287 1.336 47.6513 0.823997 49.23 0.823997C50.8087 0.823997 52.11 1.336 53.134 2.36C54.2007 3.34133 54.734 4.57866 54.734 6.072C54.734 7.56533 54.2007 8.824 53.134 9.848C52.11 10.8293 50.8087 11.32 49.23 11.32ZM53.646 15.544V51H44.686V15.544H53.646ZM63.8425 11.32C62.2638 11.32 60.9412 10.8293 59.8745 9.848C58.8505 8.824 58.3385 7.56533 58.3385 6.072C58.3385 4.57866 58.8505 3.34133 59.8745 2.36C60.9412 1.336 62.2638 0.823997 63.8425 0.823997C65.4212 0.823997 66.7225 1.336 67.7465 2.36C68.8132 3.34133 69.3465 4.57866 69.3465 6.072C69.3465 7.56533 68.8132 8.824 67.7465 9.848C66.7225 10.8293 65.4212 11.32 63.8425 11.32ZM68.2585 15.544V51H59.2985V15.544H68.2585ZM161.188 11.32C159.609 11.32 158.286 10.8293 157.22 9.848C156.196 8.824 155.684 7.56533 155.684 6.072C155.684 4.57866 156.196 3.34133 157.22 2.36C158.286 1.336 159.609 0.823997 161.188 0.823997C162.766 0.823997 164.068 1.336 165.092 2.36C166.158 3.34133 166.692 4.57866 166.692 6.072C166.692 7.56533 166.158 8.824 165.092 9.848C164.068 10.8293 162.766 11.32 161.188 11.32ZM165.604 15.544V51H156.644V15.544H165.604Z" fill="#EA4335"/>
<path d="M74.807 33.272C74.807 29.6027 75.5537 26.4027 77.047 23.672C78.5403 20.8987 80.6097 18.7653 83.255 17.272C85.9003 15.736 88.9297 14.968 92.343 14.968C96.7377 14.968 100.364 16.0773 103.223 18.296C106.124 20.472 108.066 23.544 109.047 27.512H99.383C98.871 25.976 97.9963 24.7813 96.759 23.928C95.5643 23.032 94.071 22.584 92.279 22.584C89.719 22.584 87.6923 23.5227 86.199 25.4C84.7057 27.2347 83.959 29.8587 83.959 33.272C83.959 36.6427 84.7057 39.2667 86.199 41.144C87.6923 42.9787 89.719 43.896 92.279 43.896C95.9057 43.896 98.2737 42.2747 99.383 39.032H109.047C108.066 42.872 106.124 45.9227 103.223 48.184C100.322 50.4453 96.695 51.576 92.343 51.576C88.9297 51.576 85.9003 50.8293 83.255 49.336C80.6097 47.8 78.5403 45.6667 77.047 42.936C75.5537 40.1627 74.807 36.9413 74.807 33.272ZM212.875 51.576C209.462 51.576 206.39 50.8293 203.659 49.336C200.928 47.8 198.774 45.6453 197.195 42.872C195.659 40.0987 194.891 36.8987 194.891 33.272C194.891 29.6453 195.68 26.4453 197.259 23.672C198.88 20.8987 201.078 18.7653 203.851 17.272C206.624 15.736 209.718 14.968 213.131 14.968C216.544 14.968 219.638 15.736 222.411 17.272C225.184 18.7653 227.36 20.8987 228.939 23.672C230.56 26.4453 231.371 29.6453 231.371 33.272C231.371 36.8987 230.539 40.0987 228.875 42.872C227.254 45.6453 225.035 47.8 222.219 49.336C219.446 50.8293 216.331 51.576 212.875 51.576ZM212.875 43.768C214.496 43.768 216.011 43.384 217.419 42.616C218.87 41.8053 220.022 40.6107 220.875 39.032C221.728 37.4533 222.155 35.5333 222.155 33.272C222.155 29.9013 221.259 27.32 219.467 25.528C217.718 23.6933 215.563 22.776 213.003 22.776C210.443 22.776 208.288 23.6933 206.539 25.528C204.832 27.32 203.979 29.9013 203.979 33.272C203.979 36.6427 204.811 39.2453 206.475 41.08C208.182 42.872 210.315 43.768 212.875 43.768Z" fill="#FBBC05"/>
<path d="M180.216 21.048C181.368 19.1707 182.861 17.6987 184.696 16.632C186.573 15.5653 188.707 15.032 191.096 15.032V24.44H188.728C185.912 24.44 183.779 25.1013 182.328 26.424C180.92 27.7467 180.216 30.0507 180.216 33.336V51H171.256V15.544H180.216V21.048Z" fill="#34A853"/>
</svg>
